<mxfile host="app.diagrams.net" agent="Mozilla/5.0 (Windows NT 10.0; Win64; x64) AppleWebKit/537.36 (KHTML, like Gecko) Chrome/131.0.0.0 Safari/537.36" version="25.0.3">
  <diagram name="Side-1" id="9hc5P4DBmydVcyKna2XT">
    <mxGraphModel grid="0" page="1" gridSize="10" guides="1" tooltips="1" connect="1" arrows="1" fold="1" pageScale="1" pageWidth="827" pageHeight="1169" math="0" shadow="0">
      <root>
        <mxCell id="0" />
        <mxCell id="1" parent="0" />
        <mxCell id="9vNQ5XEZvdR33hgrqw1a-1" value="cd(uc4)" style="shape=umlFrame;whiteSpace=wrap;html=1;pointerEvents=0;" vertex="1" parent="1">
          <mxGeometry x="85" y="47" width="715" height="472" as="geometry" />
        </mxCell>
        <mxCell id="9vNQ5XEZvdR33hgrqw1a-10" value="IN169&amp;nbsp;&lt;br&gt;&lt;div&gt;&lt;span style=&quot;font-weight: normal;&quot;&gt;&lt;i&gt;&amp;lt;&amp;lt;Boundary&amp;gt;&amp;gt;&lt;/i&gt;&lt;/span&gt;&lt;/div&gt;" style="swimlane;fontStyle=1;align=center;verticalAlign=top;childLayout=stackLayout;horizontal=1;startSize=40;horizontalStack=0;resizeParent=1;resizeParentMax=0;resizeLast=0;collapsible=1;marginBottom=0;whiteSpace=wrap;html=1;" vertex="1" parent="1">
          <mxGeometry x="240" y="84" width="304" height="186" as="geometry" />
        </mxCell>
        <mxCell id="9vNQ5XEZvdR33hgrqw1a-11" value="+ readADC(): int&amp;nbsp;&lt;div&gt;+ calculatePanelVoltage(adcValue: int): float&lt;/div&gt;" style="text;strokeColor=none;fillColor=none;align=left;verticalAlign=top;spacingLeft=4;spacingRight=4;overflow=hidden;rotatable=0;points=[[0,0.5],[1,0.5]];portConstraint=eastwest;whiteSpace=wrap;html=1;" vertex="1" parent="9vNQ5XEZvdR33hgrqw1a-10">
          <mxGeometry y="40" width="304" height="50" as="geometry" />
        </mxCell>
        <mxCell id="9vNQ5XEZvdR33hgrqw1a-12" value="" style="line;strokeWidth=1;fillColor=none;align=left;verticalAlign=middle;spacingTop=-1;spacingLeft=3;spacingRight=3;rotatable=0;labelPosition=right;points=[];portConstraint=eastwest;strokeColor=inherit;" vertex="1" parent="9vNQ5XEZvdR33hgrqw1a-10">
          <mxGeometry y="90" width="304" height="8" as="geometry" />
        </mxCell>
        <mxCell id="9vNQ5XEZvdR33hgrqw1a-13" value="- adcFilePath: string&lt;br&gt;- vRef: float&lt;br&gt;- rLoad: float&lt;br&gt;- rShunt: float&lt;br&gt;- adcMaxValue: int" style="text;strokeColor=none;fillColor=none;align=left;verticalAlign=top;spacingLeft=4;spacingRight=4;overflow=hidden;rotatable=0;points=[[0,0.5],[1,0.5]];portConstraint=eastwest;whiteSpace=wrap;html=1;" vertex="1" parent="9vNQ5XEZvdR33hgrqw1a-10">
          <mxGeometry y="98" width="304" height="88" as="geometry" />
        </mxCell>
        <mxCell id="9vNQ5XEZvdR33hgrqw1a-14" value="ESP32&amp;nbsp;&lt;br&gt;&lt;div&gt;&lt;span style=&quot;font-weight: normal;&quot;&gt;&lt;i&gt;&amp;lt;&amp;lt;Controller&amp;gt;&amp;gt;&lt;/i&gt;&lt;/span&gt;&lt;/div&gt;" style="swimlane;fontStyle=1;align=center;verticalAlign=top;childLayout=stackLayout;horizontal=1;startSize=40;horizontalStack=0;resizeParent=1;resizeParentMax=0;resizeLast=0;collapsible=1;marginBottom=0;whiteSpace=wrap;html=1;" vertex="1" parent="1">
          <mxGeometry x="302" y="353" width="180" height="114" as="geometry" />
        </mxCell>
        <mxCell id="9vNQ5XEZvdR33hgrqw1a-15" value="&amp;nbsp;" style="text;strokeColor=none;fillColor=none;align=left;verticalAlign=top;spacingLeft=4;spacingRight=4;overflow=hidden;rotatable=0;points=[[0,0.5],[1,0.5]];portConstraint=eastwest;whiteSpace=wrap;html=1;" vertex="1" parent="9vNQ5XEZvdR33hgrqw1a-14">
          <mxGeometry y="40" width="180" height="40" as="geometry" />
        </mxCell>
        <mxCell id="9vNQ5XEZvdR33hgrqw1a-16" value="" style="line;strokeWidth=1;fillColor=none;align=left;verticalAlign=middle;spacingTop=-1;spacingLeft=3;spacingRight=3;rotatable=0;labelPosition=right;points=[];portConstraint=eastwest;strokeColor=inherit;" vertex="1" parent="9vNQ5XEZvdR33hgrqw1a-14">
          <mxGeometry y="80" width="180" height="8" as="geometry" />
        </mxCell>
        <mxCell id="9vNQ5XEZvdR33hgrqw1a-17" value="&amp;nbsp;" style="text;strokeColor=none;fillColor=none;align=left;verticalAlign=top;spacingLeft=4;spacingRight=4;overflow=hidden;rotatable=0;points=[[0,0.5],[1,0.5]];portConstraint=eastwest;whiteSpace=wrap;html=1;" vertex="1" parent="9vNQ5XEZvdR33hgrqw1a-14">
          <mxGeometry y="88" width="180" height="26" as="geometry" />
        </mxCell>
        <mxCell id="9vNQ5XEZvdR33hgrqw1a-19" value="" style="endArrow=open;html=1;rounded=0;endFill=0;exitX=0.501;exitY=1.021;exitDx=0;exitDy=0;exitPerimeter=0;" edge="1" parent="1" source="9vNQ5XEZvdR33hgrqw1a-13" target="9vNQ5XEZvdR33hgrqw1a-14">
          <mxGeometry width="50" height="50" relative="1" as="geometry">
            <mxPoint x="632" y="377" as="sourcePoint" />
            <mxPoint x="372" y="261" as="targetPoint" />
          </mxGeometry>
        </mxCell>
      </root>
    </mxGraphModel>
  </diagram>
</mxfile>
